<svg width="195" height="159" viewBox="0 0 195 159" fill="none" xmlns="http://www.w3.org/2000/svg">
<circle cx="3" cy="3" r="3" fill="#FB8500"/>
<circle cx="24" cy="3" r="3" fill="#FB8500"/>
<circle cx="45" cy="3" r="3" fill="#FB8500"/>
<circle cx="66" cy="3" r="3" fill="#FB8500"/>
<circle cx="87" cy="3" r="3" fill="#FB8500"/>
<circle cx="108" cy="3" r="3" fill="#FB8500"/>
<circle cx="129" cy="3" r="3" fill="#FB8500"/>
<circle cx="150" cy="3" r="3" fill="#FB8500"/>
<circle cx="171" cy="3" r="3" fill="#FB8500"/>
<circle cx="192" cy="3" r="3" fill="#FB8500"/>
<circle cx="3" cy="20" r="3" fill="#FB8500"/>
<circle cx="24" cy="20" r="3" fill="#FB8500"/>
<circle cx="45" cy="20" r="3" fill="#FB8500"/>
<circle cx="66" cy="20" r="3" fill="#FB8500"/>
<circle cx="87" cy="20" r="3" fill="#FB8500"/>
<circle cx="108" cy="20" r="3" fill="#FB8500"/>
<circle cx="129" cy="20" r="3" fill="#FB8500"/>
<circle cx="150" cy="20" r="3" fill="#FB8500"/>
<circle cx="171" cy="20" r="3" fill="#FB8500"/>
<circle cx="192" cy="20" r="3" fill="#FB8500"/>
<circle cx="3" cy="37" r="3" fill="#FB8500"/>
<circle cx="24" cy="37" r="3" fill="#FB8500"/>
<circle cx="45" cy="37" r="3" fill="#FB8500"/>
<circle cx="66" cy="37" r="3" fill="#FB8500"/>
<circle cx="87" cy="37" r="3" fill="#FB8500"/>
<circle cx="108" cy="37" r="3" fill="#FB8500"/>
<circle cx="129" cy="37" r="3" fill="#FB8500"/>
<circle cx="150" cy="37" r="3" fill="#FB8500"/>
<circle cx="171" cy="37" r="3" fill="#FB8500"/>
<circle cx="192" cy="37" r="3" fill="#FB8500"/>
<circle cx="3" cy="54" r="3" fill="#FB8500"/>
<circle cx="24" cy="54" r="3" fill="#FB8500"/>
<circle cx="45" cy="54" r="3" fill="#FB8500"/>
<circle cx="66" cy="54" r="3" fill="#FB8500"/>
<circle cx="87" cy="54" r="3" fill="#FB8500"/>
<circle cx="108" cy="54" r="3" fill="#FB8500"/>
<circle cx="129" cy="54" r="3" fill="#FB8500"/>
<circle cx="150" cy="54" r="3" fill="#FB8500"/>
<circle cx="171" cy="54" r="3" fill="#FB8500"/>
<circle cx="192" cy="54" r="3" fill="#FB8500"/>
<circle cx="3" cy="71" r="3" fill="#FB8500"/>
<circle cx="24" cy="71" r="3" fill="#FB8500"/>
<circle cx="45" cy="71" r="3" fill="#FB8500"/>
<circle cx="66" cy="71" r="3" fill="#FB8500"/>
<circle cx="87" cy="71" r="3" fill="#FB8500"/>
<circle cx="108" cy="71" r="3" fill="#FB8500"/>
<circle cx="129" cy="71" r="3" fill="#FB8500"/>
<circle cx="150" cy="71" r="3" fill="#FB8500"/>
<circle cx="171" cy="71" r="3" fill="#FB8500"/>
<circle cx="192" cy="71" r="3" fill="#FB8500"/>
<circle cx="3" cy="88" r="3" fill="#FB8500"/>
<circle cx="24" cy="88" r="3" fill="#FB8500"/>
<circle cx="45" cy="88" r="3" fill="#FB8500"/>
<circle cx="66" cy="88" r="3" fill="#FB8500"/>
<circle cx="87" cy="88" r="3" fill="#FB8500"/>
<circle cx="108" cy="88" r="3" fill="#FB8500"/>
<circle cx="129" cy="88" r="3" fill="#FB8500"/>
<circle cx="150" cy="88" r="3" fill="#FB8500"/>
<circle cx="171" cy="88" r="3" fill="#FB8500"/>
<circle cx="192" cy="88" r="3" fill="#FB8500"/>
<circle cx="3" cy="105" r="3" fill="#FB8500"/>
<circle cx="24" cy="105" r="3" fill="#FB8500"/>
<circle cx="45" cy="105" r="3" fill="#FB8500"/>
<circle cx="66" cy="105" r="3" fill="#FB8500"/>
<circle cx="87" cy="105" r="3" fill="#FB8500"/>
<circle cx="108" cy="105" r="3" fill="#FB8500"/>
<circle cx="129" cy="105" r="3" fill="#FB8500"/>
<circle cx="150" cy="105" r="3" fill="#FB8500"/>
<circle cx="171" cy="105" r="3" fill="#FB8500"/>
<circle cx="192" cy="105" r="3" fill="#FB8500"/>
<circle cx="3" cy="122" r="3" fill="#FB8500"/>
<circle cx="24" cy="122" r="3" fill="#FB8500"/>
<circle cx="45" cy="122" r="3" fill="#FB8500"/>
<circle cx="66" cy="122" r="3" fill="#FB8500"/>
<circle cx="87" cy="122" r="3" fill="#FB8500"/>
<circle cx="108" cy="122" r="3" fill="#FB8500"/>
<circle cx="129" cy="122" r="3" fill="#FB8500"/>
<circle cx="150" cy="122" r="3" fill="#FB8500"/>
<circle cx="171" cy="122" r="3" fill="#FB8500"/>
<circle cx="192" cy="122" r="3" fill="#FB8500"/>
<circle cx="3" cy="139" r="3" fill="#FB8500"/>
<circle cx="24" cy="139" r="3" fill="#FB8500"/>
<circle cx="45" cy="139" r="3" fill="#FB8500"/>
<circle cx="66" cy="139" r="3" fill="#FB8500"/>
<circle cx="87" cy="139" r="3" fill="#FB8500"/>
<circle cx="108" cy="139" r="3" fill="#FB8500"/>
<circle cx="129" cy="139" r="3" fill="#FB8500"/>
<circle cx="150" cy="139" r="3" fill="#FB8500"/>
<circle cx="171" cy="139" r="3" fill="#FB8500"/>
<circle cx="192" cy="139" r="3" fill="#FB8500"/>
<circle cx="3" cy="156" r="3" fill="#FB8500"/>
<circle cx="24" cy="156" r="3" fill="#FB8500"/>
<circle cx="45" cy="156" r="3" fill="#FB8500"/>
<circle cx="66" cy="156" r="3" fill="#FB8500"/>
<circle cx="87" cy="156" r="3" fill="#FB8500"/>
<circle cx="108" cy="156" r="3" fill="#FB8500"/>
<circle cx="129" cy="156" r="3" fill="#FB8500"/>
<circle cx="150" cy="156" r="3" fill="#FB8500"/>
<circle cx="171" cy="156" r="3" fill="#FB8500"/>
<circle cx="192" cy="156" r="3" fill="#FB8500"/>
</svg>
